<svg xmlns="http://www.w3.org/2000/svg" viewBox="0 0 64 64">
  <defs>
    <linearGradient id="bg" x1="10" y1="8" x2="54" y2="58" gradientUnits="userSpaceOnUse">
      <stop offset="0" stop-color="#0f5fba"/>
      <stop offset="1" stop-color="#123a6f"/>
    </linearGradient>
    <linearGradient id="accent" x1="18" y1="14" x2="50" y2="48" gradientUnits="userSpaceOnUse">
      <stop offset="0" stop-color="#7dd3fc"/>
      <stop offset="1" stop-color="#34d399"/>
    </linearGradient>
  </defs>
  <rect width="64" height="64" rx="14" fill="url(#bg)"/>
  <path d="M16 42.5c4.4-3.1 9-4.6 13.8-4.4 4.7.2 9.3 1.8 13.8 4.4V22.2c-4.5-2.5-9.1-3.8-13.8-3.8-4.8 0-9.4 1.3-13.8 3.8v20.3Z" fill="#f8fbff"/>
  <path d="M32 18.9v20.5" stroke="#123a6f" stroke-width="2.2" stroke-linecap="round"/>
  <path d="M16 42.5c4.4-3.1 9-4.6 13.8-4.4 4.7.2 9.3 1.8 13.8 4.4" fill="none" stroke="#9ed6ff" stroke-width="2" stroke-linecap="round"/>
  <circle cx="48" cy="19" r="6.5" fill="url(#accent)"/>
  <path d="M45.2 19h5.6M48 16.2v5.6" stroke="#083451" stroke-width="2" stroke-linecap="round"/>
  <path d="M22 31.9 25.5 24l3.5 7.9m-5.5-2.1h4" fill="none" stroke="#123a6f" stroke-width="2.1" stroke-linecap="round" stroke-linejoin="round"/>
  <path d="M36 24v7.9" stroke="#123a6f" stroke-width="2.2" stroke-linecap="round"/>
</svg>
